<svg width="20" height="20" viewBox="0 0 20 20" fill="none" xmlns="http://www.w3.org/2000/svg">
<path fill-rule="evenodd" clip-rule="evenodd" d="M12.239 10L19.0362 3.20275C19.6553 2.58367 19.6553 1.583 19.0362 0.963916C18.4172 0.344832 17.4165 0.344832 16.7974 0.963916L10.0002 7.76117L3.2029 0.963916C2.58382 0.344832 1.58315 0.344832 0.964068 0.963916C0.344985 1.583 0.344985 2.58367 0.964068 3.20275L7.76132 10L0.964068 16.7972C0.344985 17.4163 0.344985 18.417 0.964068 19.0361C1.27282 19.3448 1.67815 19.5 2.08348 19.5C2.48882 19.5 2.89415 19.3448 3.2029 19.0361L10.0002 12.2388L16.7974 19.0361C17.1062 19.3448 17.5115 19.5 17.9168 19.5C18.3222 19.5 18.7275 19.3448 19.0362 19.0361C19.6553 18.417 19.6553 17.4163 19.0362 16.7972L12.239 10Z" fill="#2E3A59"/>
</svg>
