<svg width="30" height="26" viewBox="0 0 30 26" fill="none" xmlns="http://www.w3.org/2000/svg">
<path fill-rule="evenodd" clip-rule="evenodd" d="M16.3336 15.3334C16.3336 16.0694 15.7362 16.6667 15.0002 16.6667C14.2642 16.6667 13.6669 16.0694 13.6669 15.3334V10C13.6669 9.26402 14.2642 8.66669 15.0002 8.66669C15.7362 8.66669 16.3336 9.26402 16.3336 10V15.3334ZM15.0002 20.6667C14.2642 20.6667 13.6669 20.0694 13.6669 19.3334C13.6669 18.5974 14.2642 18 15.0002 18C15.7362 18 16.3336 18.5974 16.3336 19.3334C16.3336 20.0694 15.7362 20.6667 15.0002 20.6667ZM29.0816 19.7374L18.8522 2.77869C18.0536 1.45602 16.6136 0.666687 15.0002 0.666687C13.3869 0.666687 11.9469 1.45602 11.1482 2.77869L0.918906 19.7374C0.161573 20.9947 0.138906 22.5067 0.858906 23.7814C1.63091 25.1507 3.13091 26 4.77091 26H25.2296C26.8696 26 28.3696 25.1507 29.1416 23.7814C29.8616 22.5067 29.8389 20.9947 29.0816 19.7374Z" fill="#DB2C66"/>
</svg>
