<svg width="24" height="24" viewBox="0 0 24 24" fill="none" xmlns="http://www.w3.org/2000/svg">
<path fill-rule="evenodd" clip-rule="evenodd" d="M2.66667 10.6667C2.66667 6.25467 6.25467 2.66667 10.6667 2.66667C15.0787 2.66667 18.6667 6.25467 18.6667 10.6667C18.6667 15.0787 15.0787 18.6667 10.6667 18.6667C6.25467 18.6667 2.66667 15.0787 2.66667 10.6667ZM23.6093 21.724L19.0827 17.196C20.4867 15.3907 21.3333 13.128 21.3333 10.6667C21.3333 4.78533 16.548 0 10.6667 0C4.78533 0 0 4.78533 0 10.6667C0 16.548 4.78533 21.3333 10.6667 21.3333C13.128 21.3333 15.3907 20.4867 17.196 19.0827L21.724 23.6093C21.984 23.8693 22.3253 24 22.6667 24C23.008 24 23.3493 23.8693 23.6093 23.6093C24.1307 23.088 24.1307 22.2453 23.6093 21.724Z" fill="#DB2C66"/>
</svg>
