<svg width="16" height="16" viewBox="0 0 16 16" fill="none" xmlns="http://www.w3.org/2000/svg">
<path fill-rule="evenodd" clip-rule="evenodd" d="M12.0184 6.67871L9.32341 3.98371L11.2714 2.03471L13.9654 4.72871L12.0184 6.67871ZM5.07941 13.6247L2.10241 13.8957L2.36641 10.9397L7.98341 5.32271L10.6794 8.01871L5.07941 13.6247ZM15.4034 3.33771L15.4024 3.33671L12.6644 0.598705C11.9234 -0.140295 10.6504 -0.175295 9.94841 0.529705L0.952408 9.52571C0.626408 9.85071 0.424408 10.2827 0.382408 10.7397L0.00340774 14.9097C-0.0225923 15.2047 0.0824078 15.4967 0.292408 15.7067C0.481408 15.8957 0.736408 15.9997 0.999408 15.9997C1.03041 15.9997 1.06041 15.9987 1.09041 15.9957L5.26041 15.6167C5.71841 15.5747 6.14941 15.3737 6.47441 15.0487L15.4714 6.05171C16.1994 5.32171 16.1684 4.1037 15.4034 3.33771Z" fill="#2E3A59"/>
</svg>
