<svg width="34" height="34" viewBox="0 0 34 34" fill="none" xmlns="http://www.w3.org/2000/svg">
<path fill-rule="evenodd" clip-rule="evenodd" d="M21.9997 18.6667H18.6663V22C18.6663 22.9167 17.9163 23.6667 16.9997 23.6667C16.083 23.6667 15.333 22.9167 15.333 22V18.6667H11.9997C11.083 18.6667 10.333 17.9167 10.333 17C10.333 16.0834 11.083 15.3334 11.9997 15.3334H15.333V12C15.333 11.0834 16.083 10.3334 16.9997 10.3334C17.9163 10.3334 18.6663 11.0834 18.6663 12V15.3334H21.9997C22.9163 15.3334 23.6663 16.0834 23.6663 17C23.6663 17.9167 22.9163 18.6667 21.9997 18.6667ZM16.9997 0.333374C7.80967 0.333374 0.333008 7.81004 0.333008 17C0.333008 26.19 7.80967 33.6667 16.9997 33.6667C26.1897 33.6667 33.6663 26.19 33.6663 17C33.6663 7.81004 26.1897 0.333374 16.9997 0.333374Z" fill="#FF3D71"/>
</svg>
